<?xml version="1.0" encoding="utf-8"?>
<!-- Generator: Adobe Illustrator 23.1.1, SVG Export Plug-In . SVG Version: 6.00 Build 0)  -->
<svg version="1.1" id="Layer_1" xmlns="http://www.w3.org/2000/svg" xmlns:xlink="http://www.w3.org/1999/xlink" x="0px" y="0px"
	 viewBox="0 0 2064 1373" style="enable-background:new 0 0 2064 1373;" xml:space="preserve">
<style type="text/css">
	.st0{fill:none;stroke:#000000;stroke-width:1.000000e-03;stroke-linecap:round;stroke-miterlimit:288;}
</style>
<g id="svgGroup">
	<path id="bottom_outsideCutPath" vector-effect="non-scaling-stroke" class="st0" d="M62,86.9v68.3H45v80.9h8.8v4.4v4.4H45v80.9h17
		v170.5H45v80.9h8.8v4.4v4.4H45v80.9h17v68.3h68.3v17h80.9v-8.8h4.4h4.4v8.8h80.9v-17h170.5v17h80.9v-8.8h4.4h4.4v8.8H642v-17h68.3
		v-68.3h17V586h-9.1v-4.4v-4.4h8.8v-80.9h-17V325.6h17v-80.9h-8.8v-4.4v-4.4h8.8V155h-17V86.9h-68.3v-17h-80.9v8.8h-4.4H552v-8.8
		h-80.9v17H300.8v-17h-80.9v8.8h-4.4h-4.4v-8.8h-80.9v17H62z"/>
</g>
</svg>
