<?xml version="1.0" encoding="utf-8"?>
<!-- Generator: Adobe Illustrator 23.1.1, SVG Export Plug-In . SVG Version: 6.00 Build 0)  -->
<svg version="1.1" id="Layer_1" xmlns="http://www.w3.org/2000/svg" xmlns:xlink="http://www.w3.org/1999/xlink" x="0px" y="0px"
	 viewBox="0 0 2064 1373" style="enable-background:new 0 0 2064 1373;" xml:space="preserve">
<style type="text/css">
	.st0{fill:none;stroke:#000000;stroke-width:1.000000e-03;stroke-linecap:round;stroke-miterlimit:288;}
</style>
<g id="svgGroup">
	<path id="front_outsideCutPath" vector-effect="non-scaling-stroke" class="st0" d="M0,1051v40.2h17v35.9h4.2v-5h7.8v5h7.8v8.8
		h-7.8v5h-7.8v-5H17v35.9H0v80.5h17v35.9h4.2v-5h7.8v5h7.8v8.8h-7.8v5h-7.8v-5H17v35.9H0v40.2h85.2v-17h80.9v-4.2h-5v-7.8h5v-7.8
		h8.8v7.8h5v7.8h-5v4.2h80.9v17h170.5v-17h80.9v-4.2h-5v-7.8h5v-7.8h8.8v7.8h5v7.8h-5v4.2h80.9v17H682v-40.2h-17v-35.9h-4.2v5H653
		v-5h-7.8v-8.8h7.8v-5h7.8v5h4.2v-35.9h17v-80.5h-17v-35.9h-4.2v5H653v-5h-7.8v-8.8h7.8v-5h7.8v5h4.2v-35.9h17V1051h-85.2v17h-80.9
		v4.2h5v7.8h-5v7.8h-8.8v-7.8h-5v-7.8h5v-4.2h-80.9v-17H255.7v17h-80.9v4.2h5v7.8h-5v7.8h-8.8v-7.8h-5v-7.8h5v-4.2H85.2v-17H0z"/>
	<path id="left_outsideCutPath" vector-effect="non-scaling-stroke" class="st0" d="M708,1051v40.2h-17v35.9h8.8v4.4v4.4H691v35.9
		h17v80.5h-17v35.9h8.8v4.4v4.4H691v35.9h17v40.2h68.3v-17h80.9v-4.2h-5v-7.8h5v-7.8h8.8v7.8h5v7.8h-5v4.2h80.9v17h170.5v-17h80.9
		v-4.2h-5v-7.8h5v-7.8h8.8v7.8h5v7.8h-5v4.2h80.9v17h68.3v-40.2h17v-35.9h-8.8v-4.4v-4.4h8.8v-35.9h-17v-80.5h17v-35.9h-8.8v-4.4
		v-4.4h8.8v-35.9h-17V1051h-68.3v17h-80.9v4.2h5v7.8h-5v7.8h-8.8v-7.8h-5v-7.8h5v-4.2h-80.9v-17H946.7v17h-80.9v4.2h5v7.8h-5v7.8
		h-8.8v-7.8h-5v-7.8h5v-4.2h-80.9v-17H708z"/>
	<path id="top_outsideCutPath" vector-effect="non-scaling-stroke" class="st0" d="M1399,708v68.3h-17v80.9h8.8v4.4v4.4h-8.8v80.9
		h17v170.5h-17v80.9h8.8v4.4v4.4h-8.8v80.9h17v68.3h68.3v17h80.9v-8.8h4.4h4.4v8.8h80.9v-17h170.5v17h80.9v-8.8h4.4h4.4v8.8h80.9
		v-17h68.3v-68.3h17v-80.9h-8.8v-4.4v-4.4h8.8v-80.9h-17V946.7h17v-80.9h-8.8v-4.4v-4.4h8.8v-80.9h-17V708h-68.3v-17h-80.9v8.8h-4.4
		h-4.4V691h-80.9v17h-170.5v-17h-80.9v8.8h-4.4h-4.4V691h-80.9v17H1399z"/>
	<path id="back_outsideCutPath" vector-effect="non-scaling-stroke" class="st0" d="M0,720v40.2h17v35.9h4.2v-5h7.8v5h7.8v8.8h-7.8
		v5h-7.8v-5H17v35.9H0v80.5h17v35.9h4.2v-5h7.8v5h7.8v8.8h-7.8v5h-7.8v-5H17v35.9H0v40.2h85.2v-17h80.9v-4.2h-5v-7.8h5v-7.8h8.8v7.8
		h5v7.8h-5v4.2h80.9v17h170.5v-17h80.9v-4.2h-5v-7.8h5v-7.8h8.8v7.8h5v7.8h-5v4.2h80.9v17H682v-40.2h-17v-35.9h-4.2v5H653v-5h-7.8
		v-8.8h7.8v-5h7.8v5h4.2v-35.9h17v-80.5h-17v-35.9h-4.2v5H653v-5h-7.8v-8.8h7.8v-5h7.8v5h4.2v-35.9h17V720h-85.2v17h-80.9v4.2h5v7.8
		h-5v7.8h-8.8v-7.8h-5v-7.8h5V737h-80.9v-17H255.7v17h-80.9v4.2h5v7.8h-5v7.8h-8.8v-7.8h-5v-7.8h5V737H85.2v-17H0z"/>
	<path id="right_outsideCutPath" vector-effect="non-scaling-stroke" class="st0" d="M708,720v40.2h-17v35.9h8.8v4.4v4.4H691v35.9
		h17v80.5h-17v35.9h8.8v4.4v4.4H691v35.9h17v40.2h68.3v-17h80.9v-4.2h-5v-7.8h5v-7.8h8.8v7.8h5v7.8h-5v4.2h80.9v17h170.5v-17h80.9
		v-4.2h-5v-7.8h5v-7.8h8.8v7.8h5v7.8h-5v4.2h80.9v17h68.3v-40.2h17v-35.9h-8.8v-4.4v-4.4h8.8v-35.9h-17v-80.5h17v-35.9h-8.8v-4.4
		v-4.4h8.8v-35.9h-17V720h-68.3v17h-80.9v4.2h5v7.8h-5v7.8h-8.8v-7.8h-5v-7.8h5V737h-80.9v-17H946.7v17h-80.9v4.2h5v7.8h-5v7.8h-8.8
		v-7.8h-5v-7.8h5V737h-80.9v-17H708z"/>
	<path id="bottom_outsideCutPath" vector-effect="non-scaling-stroke" class="st0" d="M1399,17v68.3h-17v80.9h8.8v4.4v4.4h-8.8v80.9
		h17v170.5h-17v80.9h8.8v4.4v4.4h-8.8v80.9h17V665h68.3v17h80.9v-8.8h4.4h4.4v8.8h80.9v-17h170.5v17h80.9v-8.8h4.4h4.4v8.8h80.9v-17
		h68.3v-68.3h17v-80.9h-8.8v-4.4v-4.4h8.8v-80.9h-17V255.7h17v-80.9h-8.8v-4.4v-4.4h8.8V85.2h-17V17h-68.3V0h-80.9v8.8h-4.4h-4.4V0
		h-80.9v17h-170.5V0h-80.9v8.8h-4.4h-4.4V0h-80.9v17H1399z"/>
</g>
</svg>
