<?xml version="1.0" encoding="utf-8"?>
<!-- Generator: Adobe Illustrator 23.1.1, SVG Export Plug-In . SVG Version: 6.00 Build 0)  -->
<svg version="1.1" id="Layer_1" xmlns="http://www.w3.org/2000/svg" xmlns:xlink="http://www.w3.org/1999/xlink" x="0px" y="0px"
	 viewBox="0 0 2064 1373" style="enable-background:new 0 0 2064 1373;" xml:space="preserve">
<style type="text/css">
	.st0{fill:none;stroke:#000000;stroke-width:1.000000e-03;stroke-linecap:round;stroke-miterlimit:288;}
</style>
<g id="svgGroup">
	<path id="back_outsideCutPath" vector-effect="non-scaling-stroke" class="st0" d="M12,12.2v40.2h17v35.9h4.2v-5H41v5h7.8v8.8H41v5
		h-7.8v-5H29V133H12v80.5h17v35.9h4.2v-5H41v5h7.8v8.8H41v5h-7.8v-5H29v35.9H12v40.2h85.2v-17h80.9v-4.2h-5v-7.8h5v-7.8h8.8v7.8h5
		v7.8h-5v4.2h80.9v17h170.5v-17h80.9v-4.2h-5v-7.8h5v-7.8h8.8v7.8h5v7.8h-5v4.2h80.9v17h85.2v-40.2h-17v-35.9h-4.2v5h-7.8v-5h-7.8
		v-8.8h7.8v-5h7.8v5h4.2v-35.9h17V133h-17V97.1h-4.2v5h-7.8v-5h-7.8v-8.8h7.8v-5h7.8v5h4.2V52.5h17V12.2h-85.2v17H528v4.2h5v7.8h-5
		V49h-8.8v-7.8h-5v-7.8h5v-4.2h-80.9v-17H267.8v17h-80.9v4.2h5v7.8h-5V49h-8.8v-7.8h-5v-7.8h5v-4.2H97.2v-17
		C97.2,12.2,12,12.2,12,12.2z"/>
</g>
<g id="svgGroup_1_">
	<path id="back_outsideCutPath_1_" vector-effect="non-scaling-stroke" class="st0" d="M13.4,344.1v40.2h17v35.9h4.2v-5h7.8v5h7.8
		v8.8h-7.8v5h-7.8v-5h-4.2v35.9h-17v80.5h17v35.9h4.2v-5h7.8v5h7.8v8.8h-7.8v5h-7.8v-5h-4.2V626h-17v40.2h85.2v-17h80.9V645h-5v-7.8
		h5v-7.8h8.8v7.8h5v7.8h-5v4.2h80.9v17h170.5v-17h80.9V645h-5v-7.8h5v-7.8h8.8v7.8h5v7.8h-5v4.2h80.9v17h85.2V626h-17v-35.9h-4.2v5
		h-7.8v-5h-7.8v-8.8h7.8v-5h7.8v5h4.2v-35.9h17v-80.5h-17V429h-4.2v5h-7.8v-5h-7.8v-8.8h7.8v-5h7.8v5h4.2v-35.8h17v-40.3h-85.2v17
		h-80.9v4.2h5v7.8h-5v7.8h-8.8v-7.8h-5v-7.8h5v-4.2h-80.9v-17H269.2v17h-80.9v4.2h5v7.8h-5v7.8h-8.8v-7.8h-5v-7.8h5v-4.2H98.6v-17
		C98.6,344.1,13.4,344.1,13.4,344.1z"/>
</g>
</svg>
