<?xml version="1.0" encoding="utf-8"?>
<!-- Generator: Adobe Illustrator 23.1.1, SVG Export Plug-In . SVG Version: 6.00 Build 0)  -->
<svg version="1.1" id="Layer_1" xmlns="http://www.w3.org/2000/svg" xmlns:xlink="http://www.w3.org/1999/xlink" x="0px" y="0px"
	 viewBox="0 0 2064 1373" style="enable-background:new 0 0 2064 1373;" xml:space="preserve">
<style type="text/css">
	.st0{fill:none;stroke:#000000;stroke-width:1.000000e-03;stroke-linecap:round;stroke-miterlimit:288;}
</style>
<g id="svgGroup">
	<path id="left_outsideCutPath" vector-effect="non-scaling-stroke" class="st0" d="M28,10v40.2H11v35.9h8.8v4.4v4.4H11v35.9h17
		v80.5H11v35.9h8.8v4.4v4.4H11v35.9h17V332h68.3v-17h80.9v-4.2h-5V303h5v-7.8h8.8v7.8h5v7.8h-5v4.2h80.9v17h170.5v-17h80.9v-4.2h-5
		V303h5v-7.8h8.8v7.8h5v7.8h-5v4.2H608v17h68v-40.2h17v-35.9h-8.8v-4.4v-4.4h8.8v-35.9h-17v-80.5h17V94.8h-8.8v-4.4V86h8.8V50.2h-17
		V10h-68.3v17h-80.9v4.2h5V39h-5v7.8H518V39h-5v-7.8h5V27h-80.9V10H266.7v17h-80.9v4.2h5V39h-5v7.8H177V39h-5v-7.8h5V27H96.1V10H28z
		"/>
</g>
<g id="svgGroup_1_">
	<path id="left_outsideCutPath_1_" vector-effect="non-scaling-stroke" class="st0" d="M27.9,338v40.2h-17v35.9h8.8v4.4v4.4h-8.8
		v35.9h17v80.5h-17v35.9h8.8v4.4v4.4h-8.8v35.9h17V660h68.3v-17h80.9v-4.2h-5V631h5v-7.8h8.8v7.8h5v7.8h-5v4.2h80.9v17h170.5v-17
		h80.9v-4.2h-5V631h5v-7.8h8.8v7.8h5v7.8h-5v4.2h80.9v17h68v-40.2h17v-35.9h-8.8v-4.4v-4.4h8.8v-35.9h-17v-80.5h17v-35.9h-8.8v-4.4
		V414h8.8v-35.8h-17V338h-68.3v17h-80.9v4.2h5v7.8h-5v7.8h-8.8V367h-5v-7.8h5V355H437v-17H266.6v17h-80.9v4.2h5v7.8h-5v7.8h-8.8V367
		h-5v-7.8h5V355H96v-17H27.9z"/>
</g>
</svg>
